#!OML:ASF E:\Style4\Style4.ASF
:FULLY-SPECIFIED
:DEGREES
1223
root 0.275189 16.4965 0.561641 2.92723 15.2893 3.76739
lowerback 11.5333 4.07481 -0.686633
upperback 4.01837 5.31828 -0.54354
thorax -2.25439 2.65473 -0.882183
lowerneck 4.3956 0.419754 -2.09377
upperneck 7.28444 0.462109 1.59596
head 1.51262 0.217615 0.844971
rclavicle 5.54609e-014 -1.27222e-014
rhumerus -27.5595 20.4588 -60.6664
rradius 136.392
rwrist -73.4349
rhand 59.7649 -4.3087
rfingers 7.12502
rthumb 74.5479 27.2739
lclavicle 5.54609e-014 -1.27222e-014
lhumerus -16.734 -14.0196 57.99
lradius 138.271
lwrist 73.1207
lhand 39.7745 51.5726
lfingers 7.12502
lthumb 62.208 62.805
rfemur -22.3867 -16.3085 14.2402
rtibia 59.5444
rfoot -32.6333 -23.3406
rtoes -15.7749
lfemur -26.4672 -3.37196 -24.2573
ltibia 57.0476
lfoot -30.5515 8.47534
ltoes -18.4354
1224
root 0.274361 16.4995 0.56283 2.90991 15.2943 3.74146
lowerback 11.524 4.12633 -0.661192
upperback 4.00243 5.38853 -0.566664
thorax -2.26081 2.68985 -0.929352
lowerneck 4.34369 0.336591 -2.02762
upperneck 7.36812 0.353398 1.61726
head 1.55016 0.165806 0.841329
rclavicle -1.59028e-015 -8.34896e-015
rhumerus -26.8665 21.6246 -58.3136
rradius 136.463
rwrist -73.9655
rhand 59.1467 -3.99141
rfingers 7.12502
rthumb 74.3932 25.4373
lclavicle -1.59028e-015 -8.34896e-015
lhumerus -15.5051 -15.6631 55.3082
lradius 138.313
lwrist 73.7481
lhand 38.7864 50.4203
lfingers 7.12502
lthumb 61.3818 62.6633
rfemur -22.3659 -16.3223 14.2683
rtibia 59.5351
rfoot -32.621 -23.2748
rtoes -15.8001
lfemur -26.4333 -3.39714 -24.2214
ltibia 57.0158
lfoot -30.5483 8.34858
ltoes -17.9494
1225
root 0.272523 16.5015 0.56076 2.91704 15.2917 3.69398
lowerback 11.5071 4.15169 -0.648621
upperback 3.96034 5.42252 -0.589509
thorax -2.29173 2.70665 -0.965035
lowerneck 4.32756 0.294985 -1.94837
upperneck 7.49039 0.298635 1.65749
head 1.59293 0.14148 0.84143
rclavicle -7.5737e-014 1.27222e-014
rhumerus -26.0927 22.8306 -55.9895
rradius 136.513
rwrist -74.5696
rhand 58.5906 -3.78299
rfingers 7.12502
rthumb 74.235 23.747
lclavicle -7.5737e-014 1.27222e-014
lhumerus -14.1811 -17.2136 52.5032
lradius 138.346
lwrist 74.564
lhand 37.205 49.362
lfingers 7.12502
lthumb 60.0407 63.0995
rfemur -22.4102 -16.3061 14.3397
rtibia 59.546
rfoot -32.6913 -23.0454
rtoes -15.0525
lfemur -26.4715 -3.39899 -24.1627
ltibia 57.012
lfoot -30.48 8.2821
ltoes -17.7847
1226
root 0.268249 16.5051 0.557252 2.87098 15.2791 3.52074
lowerback 11.5641 4.18199 -0.509917
upperback 3.90718 5.47642 -0.59296
thorax -2.36437 2.73328 -1.05943
lowerneck 4.28404 0.27118 -1.88481
upperneck 7.65781 0.263118 1.77776
head 1.65474 0.127833 0.869803
rclavicle -5.1684e-014 1.35174e-014
rhumerus -25.2993 24.0317 -53.637
rradius 136.552
rwrist -75.1849
rhand 57.8442 -3.41535
rfingers 7.12502
rthumb 73.9955 21.6301
lclavicle -5.1684e-014 1.35174e-014
lhumerus -12.6749 -18.5902 49.6533
lradius 138.131
lwrist 75.196
lhand 36.6675 49.1463
lfingers 7.12502
lthumb 59.5801 63.36
rfemur -22.4513 -16.2368 14.5697
rtibia 59.5589
rfoot -32.7379 -22.9644
rtoes -14.6064
lfemur -26.5212 -3.37277 -23.955
ltibia 57.0223
lfoot -30.4143 8.34842
ltoes -18.0999
1227
root 0.267644 16.509 0.558827 2.84145 15.2605 3.49941
lowerback 11.5968 4.20433 -0.488964
upperback 3.88096 5.50666 -0.623555
thorax -2.40409 2.74819 -1.11047
lowerneck 4.18513 0.272578 -1.96399
upperneck 7.8556 0.253223 1.97818
head 1.73603 0.124783 0.948391
rclavicle -7.85199e-015 1.90833e-014
rhumerus -24.4216 25.3159 -51.2765
rradius 136.578
rwrist -75.7026
rhand 57.0901 -3.00906
rfingers 7.12502
rthumb 73.7231 19.6064
lclavicle -7.85199e-015 1.90833e-014
lhumerus -11.2552 -19.8543 46.8594
lradius 137.997
lwrist 75.9266
lhand 36.6815 49.602
lfingers 7.12502
lthumb 59.5921 63.8035
rfemur -22.4357 -16.2545 14.5854
rtibia 59.5843
rfoot -32.591 -23.0506
rtoes -14.9451
lfemur -26.469 -3.39862 -23.9286
ltibia 57.0056
lfoot -30.4037 8.29751
ltoes -17.895
1228
root 0.271792 16.5141 0.564236 2.89979 15.2323 3.57206
lowerback 11.4976 4.18278 -0.58563
upperback 3.86977 5.46817 -0.638323
thorax -2.36978 2.72906 -1.05982
lowerneck 4.0292 0.304564 -2.10794
upperneck 8.0983 0.287827 2.08355
head 1.84099 0.140827 1.00912
rclavicle -1.94809e-014 -1.03368e-014
rhumerus -23.2453 26.7084 -48.81
rradius 136.575
rwrist -76.2702
rhand 56.3959 -2.80987
rfingers 7.12502
rthumb 73.4466 17.6437
lclavicle -1.94809e-014 -1.03368e-014
lhumerus -10.0617 -21.0187 44.1742
lradius 138.045
lwrist 76.5201
lhand 36.8044 50.1277
lfingers 7.12502
lthumb 59.6976 64.2216
rfemur -22.4824 -16.3277 14.4736
rtibia 59.6175
rfoot -32.4677 -22.9356
rtoes -15.283
lfemur -26.44 -3.44422 -24.0253
ltibia 56.9631
lfoot -30.3578 8.38839
ltoes -17.9451
1229
root 0.275472 16.5192 0.569953 2.94427 15.2095 3.50684
lowerback 11.3693 4.16849 -0.582969
upperback 3.839 5.45208 -0.600619
thorax -2.33578 2.72099 -1.01162
lowerneck 3.86375 0.329001 -2.18458
upperneck 8.43944 0.319482 2.09673
head 1.97981 0.155963 1.03028
rclavicle -4.41302e-014 3.57812e-015
rhumerus -22.1239 28.0836 -46.3889
rradius 136.652
rwrist -76.7791
rhand 55.5493 -2.83341
rfingers 7.12502
rthumb 73.0779 15.0859
lclavicle -4.41302e-014 3.57812e-015
lhumerus -8.85509 -22.1852 41.5686
lradius 137.967
lwrist 76.8447
lhand 37.0337 50.0823
lfingers 7.12502
lthumb 59.8941 63.9732
rfemur -22.55 -16.3707 14.5351
rtibia 59.6311
rfoot -32.2804 -22.9739
rtoes -15.6614
lfemur -26.46 -3.46655 -23.9728
ltibia 56.9283
lfoot -30.3481 8.53154
ltoes -18.2246
1230
root 0.278047 16.5239 0.572783 2.99164 15.1938 3.47224
lowerback 11.3259 4.20126 -0.548911
upperback 3.76663 5.49842 -0.61695
thorax -2.38224 2.74369 -1.05342
lowerneck 3.67198 0.30714 -2.20222
upperneck 8.89237 0.287789 2.16526
head 2.16239 0.142974 1.06002
rclavicle -4.41302e-014 2.78299e-014
rhumerus -21.3242 29.2845 -44.1624
rradius 136.79
rwrist -77.0799
rhand 54.8346 -2.77003
rfingers 7.12502
rthumb 72.7411 13.0986
lclavicle -4.41302e-014 2.78299e-014
lhumerus -7.51118 -23.4197 38.9734
lradius 137.869
lwrist 77.1796
lhand 37.3283 49.8268
lfingers 7.12502
lthumb 60.146 63.4529
rfemur -22.628 -16.415 14.5603
rtibia 59.6637
rfoot -32.1951 -22.8776
rtoes -15.4628
lfemur -26.4782 -3.53943 -23.9477
ltibia 56.8937
lfoot -30.3917 8.65593
ltoes -18.6347
1231
root 0.278868 16.5287 0.572662 3.01283 15.1784 3.41706
lowerback 11.3768 4.22411 -0.51818
upperback 3.67292 5.53019 -0.61747
thorax -2.50416 2.75839 -1.084
lowerneck 3.49544 0.277558 -2.2058
upperneck 9.35404 0.24754 2.20189
head 2.34693 0.125673 1.07725
rclavicle -5.34731e-014 -6.36111e-015
rhumerus -20.5469 30.4433 -42.0432
rradius 136.89
rwrist -77.3136
rhand 54.5895 -2.74508
rfingers 7.12502
rthumb 72.6205 12.4395
lclavicle -5.34731e-014 -6.36111e-015
lhumerus -6.26466 -24.6245 36.4378
lradius 137.959
lwrist 77.9097
lhand 37.027 50.4865
lfingers 7.12502
lthumb 59.8884 64.3834
rfemur -22.7028 -16.4506 14.6139
rtibia 59.711
rfoot -32.0662 -22.7921
rtoes -15.5268
lfemur -26.4989 -3.5902 -23.896
ltibia 56.8764
lfoot -30.4198 8.74884
ltoes -18.8908
1232
root 0.28027 16.5321 0.571355 3.02076 15.1764 3.36446
lowerback 11.4344 4.20027 -0.543905
upperback 3.59944 5.49545 -0.575311
thorax -2.61911 2.73983 -1.03031
lowerneck 3.26361 0.297117 -2.23389
upperneck 9.86233 0.278549 2.16165
head 2.55666 0.141245 1.07558
rclavicle -3.99557e-014 -2.38542e-015
rhumerus -19.4899 31.6211 -39.8551
rradius 136.955
rwrist -77.5281
rhand 54.4081 -2.79649
rfingers 7.12502
rthumb 72.5296 11.8878
lclavicle -3.99557e-014 -2.38542e-015
lhumerus -5.21956 -25.7509 34.0757
lradius 138.144
lwrist 78.6299
lhand 36.2818 51.2937
lfingers 7.12502
lthumb 59.2481 65.8398
rfemur -22.7694 -16.523 14.6568
rtibia 59.7879
rfoot -31.9483 -22.6695
rtoes -15.8536
lfemur -26.5253 -3.66803 -23.8503
ltibia 56.8648
lfoot -30.338 8.74234
ltoes -18.4721
1233
root 0.281575 16.5353 0.572075 3.09118 15.1875 3.36316
lowerback 11.412 4.17016 -0.64711
upperback 3.53212 5.44523 -0.524015
thorax -2.69213 2.71395 -0.915528
lowerneck 2.87943 0.332677 -2.36759
upperneck 10.5392 0.32825 2.18858
head 2.85341 0.164468 1.1173
rclavicle 2.16675e-014 2.90226e-014
rhumerus -18.4107 32.8119 -37.7336
rradius 137.109
rwrist -77.7657
rhand 53.9731 -2.8641
rfingers 7.12502
rthumb 72.3062 10.6422
lclavicle 2.16675e-014 2.90226e-014
lhumerus -4.20055 -26.7663 31.8874
lradius 138.106
lwrist 78.7529
lhand 36.3916 50.8886
lfingers 7.12502
lthumb 59.3427 65.3409
rfemur -22.9139 -16.6034 14.6548
rtibia 59.8951
rfoot -31.8242 -22.5576
rtoes -15.6392
lfemur -26.5892 -3.75491 -23.8537
ltibia 56.8535
lfoot -30.2856 8.77396
ltoes -18.1351
1234
root 0.28217 16.5372 0.571543 3.17365 15.1752 3.38942
lowerback 11.4207 4.18482 -0.736611
upperback 3.44489 5.45393 -0.508357
thorax -2.79746 2.71737 -0.856383
lowerneck 2.43829 0.323923 -2.46098
upperneck 11.353 0.320673 2.22493
head 3.21381 0.161227 1.15698
rclavicle 6.55989e-015 -8.74653e-015
rhumerus -17.6979 33.9408 -35.9486
rradius 137.374
rwrist -77.9999
rhand 53.3361 -3.11906
rfingers 7.12502
rthumb 71.9655 8.71709
lclavicle 6.55989e-015 -8.74653e-015
lhumerus -3.09163 -27.7883 29.7768
lradius 138.021
lwrist 78.8371
lhand 36.5528 50.2458
lfingers 7.12502
lthumb 59.4814 64.5592
rfemur -23.0958 -16.6216 14.6243
rtibia 60.0077
rfoot -31.6342 -22.5215
rtoes -15.6794
lfemur -26.6685 -3.81652 -23.8845
ltibia 56.8517
lfoot -30.3215 8.8594
ltoes -18.2521
1235
root 0.283317 16.5372 0.571231 3.26466 15.1356 3.41364
lowerback 11.4198 4.2223 -0.804908
upperback 3.33422 5.49416 -0.518894
thorax -2.91735 2.73651 -0.840665
lowerneck 2.0899 0.286854 -2.48264
upperneck 12.1472 0.275612 2.24582
head 3.55715 0.141543 1.17798
rclavicle -4.87022e-014 -1.59028e-015
rhumerus -17.0965 34.8595 -34.3437
rradius 137.498
rwrist -78.025
rhand 52.9708 -3.03113
rfingers 7.12502
rthumb 71.7632 7.87636
lclavicle -4.87022e-014 -1.59028e-015
lhumerus -1.92786 -28.7662 27.7448
lradius 137.97
lwrist 79.3432
lhand 36.2831 50.158
lfingers 7.12502
lthumb 59.2492 64.7031
rfemur -23.2726 -16.5982 14.5907
rtibia 60.1203
rfoot -31.5375 -22.3984
rtoes -15.4874
lfemur -26.7684 -3.86279 -23.9165
ltibia 56.8693
lfoot -30.3205 8.87957
ltoes -18.1281
